
<svg width="95px" height="90px" viewBox="0 0 95 90" version="1.1" xmlns="http://www.w3.org/2000/svg" xmlns:xlink="http://www.w3.org/1999/xlink">
    <!-- Generator: Sketch 49.1 (51147) - http://www.bohemiancoding.com/sketch -->
    <desc>Created with Sketch.</desc>
    <defs></defs>
    <g id="Page-1" stroke="none" stroke-width="1" fill="none" fill-rule="evenodd" stroke-linecap="round" stroke-linejoin="round">
        <g id="Forside-1440" transform="translate(-673.000000, -463.000000)" stroke="#5023F9">
            <g id="ddesign" transform="translate(674.000000, 464.000000)">
                <g id="Group-2">
                    <g id="Page-1-Copy-3" stroke-width="3">
                        <polygon id="Stroke-1" points="8.416 63.8373 24.251 63.8373 24.251 0.4993 8.416 0.4993"></polygon>
                        <polygon id="Stroke-3" points="24.251 16.3343 40.084 16.3343 40.084 0.4993 24.251 0.4993"></polygon>
                        <path d="M40.0842,16.3347 L40.0842,0.4997 L47.9452,0.4997 C52.3482,0.4997 55.9172,4.0687 55.9172,8.4717 L55.9172,16.3347 L40.0842,16.3347 Z" id="Stroke-4"></path>
                        <polygon id="Stroke-5" points="24.251 63.8373 40.084 63.8373 40.084 48.0033 24.251 48.0033"></polygon>
                        <path d="M40.0842,63.8377 L40.0842,48.0037 L55.9172,48.0037 L55.9172,55.8667 C55.9172,60.2697 52.3482,63.8377 47.9452,63.8377 L40.0842,63.8377 Z" id="Stroke-6"></path>
                        <path d="M56.0119,32.1687 L56.0119,16.3347 C64.7569,16.3347 71.8449,23.4227 71.8449,32.1677 L71.8449,32.1687 L56.0119,32.1687 Z" id="Stroke-7"></path>
                        <path d="M56.0119,48.0037 L56.0119,32.1687 L71.8449,32.1687 L71.8449,32.1707 C71.8449,40.9147 64.7569,48.0037 56.0119,48.0037 Z" id="Stroke-8"></path>
                        <polygon id="Stroke-9" points="8.418 32.1683 24.251 32.1683 24.251 16.3343 8.418 16.3343"></polygon>
                        <polygon id="Stroke-10" points="8.418 48.0033 24.251 48.0033 24.251 32.1683 8.418 32.1683"></polygon>
                        <polygon id="Stroke-11" points="0.501 16.3343 8.418 16.3343 8.418 8.4163 0.501 8.4163"></polygon>
                        <polygon id="Stroke-12" points="0.501 8.4163 8.418 8.4163 8.418 0.4993 0.501 0.4993"></polygon>
                        <polygon id="Stroke-13" points="0.5 63.8373 8.416 63.8373 8.416 55.9203 0.5 55.9203"></polygon>
                        <polygon id="Stroke-14" points="0.5 55.9203 8.416 55.9203 8.416 48.0033 0.5 48.0033"></polygon>
                        <polygon id="Stroke-15" points="73.7502 55.8797 73.7502 81.0827 81.0962 73.6137 91.5712 73.7007"></polygon>
                        <path d="M81.0959,73.614 L86.6649,87.06" id="Stroke-16"></path>
                    </g>
                </g>
            </g>
        </g>
    </g>
</svg>
