
<svg width="71px" height="87px" viewBox="0 0 71 87" version="1.1" xmlns="http://www.w3.org/2000/svg" xmlns:xlink="http://www.w3.org/1999/xlink">
    <!-- Generator: Sketch 49.1 (51147) - http://www.bohemiancoding.com/sketch -->
    <desc>Created with Sketch.</desc>
    <defs></defs>
    <g id="Page-1" stroke="none" stroke-width="1" fill="none" fill-rule="evenodd" stroke-linecap="round" stroke-linejoin="round">
        <g id="Forside-1440" transform="translate(-427.000000, -464.000000)" stroke="#5023F9" stroke-width="3">
            <g id="Page-1-Copy-2" transform="translate(428.000000, 466.000000)">
                <polyline id="Stroke-1" points="14.4616 19.8446 0.5006 19.8446 0.5006 83.1826 14.8336 83.1826 14.8336 57.3486"></polyline>
                <path d="M68.1237,41.9324 L34.3117,78.2984" id="Stroke-3"></path>
                <path d="M34.3117,78.2987 L0.4997,41.9327" id="Stroke-5"></path>
                <polyline id="Stroke-7" points="53.7902 57.3485 53.7902 83.1825 68.1232 83.1825 68.1232 19.8445 54.1622 19.8445"></polyline>
                <path d="M57.1491,11.1551 C57.1491,4.4421 52.2031,0.0001 45.2161,0.0001 C39.9291,0.0001 36.4241,2.7061 34.3121,6.1271 C32.1991,2.7061 28.6941,0.0001 23.4071,0.0001 C16.4201,0.0001 11.4741,4.4421 11.4741,11.1551 C11.4741,14.5111 12.7101,17.5501 14.8191,19.7491 L14.8121,19.7511 L34.6271,40.8121 L53.8111,19.7511 L53.8041,19.7501 C55.9131,17.5501 57.1491,14.5111 57.1491,11.1551 Z" id="Stroke-9"></path>
                <path d="M34.3117,26.9315 L34.3117,12.7575" id="Stroke-11"></path>
                <path d="M27.2253,19.8446 L41.3983,19.8446" id="Stroke-13"></path>
                <path d="M34.3141,59.5555 L68.1241,24.0985" id="Stroke-15"></path>
                <path d="M0.5002,24.0985 L34.3142,59.5555" id="Stroke-17"></path>
            </g>
        </g>
    </g>
</svg>
