
<svg width="113px" height="90px" viewBox="0 0 113 90" version="1.1" xmlns="http://www.w3.org/2000/svg" xmlns:xlink="http://www.w3.org/1999/xlink">
    <!-- Generator: Sketch 49.1 (51147) - http://www.bohemiancoding.com/sketch -->
    <desc>Created with Sketch.</desc>
    <defs></defs>
    <g id="Page-1" stroke="none" stroke-width="1" fill="none" fill-rule="evenodd" stroke-linecap="round" stroke-linejoin="round">
        <g id="Forside-1440" transform="translate(-551.000000, -716.000000)" stroke="#5023F9" stroke-width="3">
            <g id="Page-1-Copy-2" transform="translate(552.000000, 717.000000)">
                <path d="M84.8313,47.0011 C84.8313,62.0191 72.6563,74.1931 57.6393,74.1931 C42.6213,74.1931 30.4473,62.0191 30.4473,47.0011 C30.4473,31.9831 42.6213,19.8101 57.6393,19.8101 C72.6563,19.8101 84.8313,31.9831 84.8313,47.0011 Z" id="Stroke-1"></path>
                <path d="M71.8127,47.0011 C71.8127,54.8291 65.4667,61.1751 57.6387,61.1751 C49.8117,61.1751 43.4657,54.8291 43.4657,47.0011 C43.4657,39.1741 49.8117,32.8281 57.6387,32.8281 C65.4667,32.8281 71.8127,39.1741 71.8127,47.0011 Z" id="Stroke-3"></path>
                <polygon id="Stroke-5" points="5.7385 47.0011 0.5005 52.2401 5.7385 57.4791 20.8205 57.4791 20.8205 47.0011"></polygon>
                <path d="M12.5246,57.4787 L12.5246,73.9857" id="Stroke-7"></path>
                <path d="M4.2297,73.9855 L20.5567,73.9855 C26.0197,73.9855 30.4477,78.4145 30.4477,83.8765 L30.4477,87.3135 L83.0657,87.3135 L83.0657,72.9855 L92.8527,72.9855 L92.8527,63.9795 L99.0447,63.9795 L99.0447,47.0015 L109.5407,47.0015 L109.5407,73.9855" id="Stroke-9"></path>
                <path d="M103.4553,39.0841 C99.6953,17.1761 80.6203,0.5001 57.6393,0.5001 C34.6573,0.5001 15.5833,17.1761 11.8223,39.0841" id="Stroke-11"></path>
            </g>
        </g>
    </g>
</svg>
