
<svg width="74px" height="112px" viewBox="0 0 74 112" version="1.1" xmlns="http://www.w3.org/2000/svg" xmlns:xlink="http://www.w3.org/1999/xlink">
    <!-- Generator: Sketch 49.1 (51147) - http://www.bohemiancoding.com/sketch -->
    <desc>Created with Sketch.</desc>
    <defs></defs>
    <g id="Page-1" stroke="none" stroke-width="1" fill="none" fill-rule="evenodd" stroke-linecap="round" stroke-linejoin="round">
        <g id="Forside-1440" transform="translate(-858.000000, -705.000000)" stroke="#5023F9">
            <g id="putv" transform="translate(859.000000, 706.000000)">
                <g id="Group-2">
                    <g id="Page-1-Copy-3" stroke-width="3">
                        <polyline id="Stroke-1" points="39.5707 17.8329 17.8337 17.8329 17.8337 81.3289"></polyline>
                        <path d="M32.1664,81.329 L17.8334,81.329" id="Stroke-2"></path>
                        <polyline id="Stroke-3" points="17.8334 81.329 27.9684 91.465 42.3024 91.465 32.1664 81.329"></polyline>
                        <polyline id="Stroke-4" points="32.1664 60.7421 42.3024 70.8771 49.7064 70.8771"></polyline>
                        <path d="M39.5707,60.7421 L32.1667,60.7421" id="Stroke-5"></path>
                        <path d="M39.5707,46.4091 L32.1667,46.4091" id="Stroke-6"></path>
                        <path d="M39.5707,32.0751 L32.1667,32.0751" id="Stroke-7"></path>
                        <path d="M32.1664,60.7421 L32.1664,81.3291" id="Stroke-8"></path>
                        <path d="M32.1664,46.4091 L32.1664,32.0751" id="Stroke-9"></path>
                        <g id="Group-28" transform="translate(0.000000, 0.298000)">
                            <path d="M54.7416,54.1599 C46.3626,62.5389 32.7786,62.5389 24.3996,54.1599 C16.0216,45.7819 16.0216,32.1969 24.3996,23.8189 C32.7786,15.4399 46.3626,15.4399 54.7416,23.8189 C63.1196,32.1969 63.1196,45.7819 54.7416,54.1599 Z" id="Stroke-10"></path>
                            <path d="M49.7065,70.5789 C55.1965,70.5789 60.6875,68.4839 64.8765,64.2959 C69.0655,60.1059 71.1605,54.6149 71.1605,49.1249 C71.1605,43.6349 69.0655,38.1429 64.8765,33.9539 L59.8095,28.8869 L54.7415,23.8189" id="Stroke-12"></path>
                            <path d="M39.5707,31.7771 C43.5537,31.7771 46.7827,35.0061 46.7827,38.9901 C46.7827,42.9721 43.5537,46.1111 39.5707,46.1111" id="Stroke-14"></path>
                            <path d="M42.3022,91.1667 L42.3022,70.5787" id="Stroke-16"></path>
                            <path d="M32.1664,31.7771 L44.5524,44.1631" id="Stroke-18"></path>
                            <path d="M0.5004,17.5349 L7.8334,17.5349" id="Stroke-20"></path>
                            <path d="M17.8334,0.2019 L17.8334,7.5349" id="Stroke-22"></path>
                            <path d="M59.6352,91.1667 L52.3022,91.1667" id="Stroke-24"></path>
                            <path d="M42.3022,108.4998 L42.3022,101.1668" id="Stroke-26"></path>
                        </g>
                    </g>
                </g>
            </g>
        </g>
    </g>
</svg>
