
<svg width="104px" height="96px" viewBox="0 0 104 96" version="1.1" xmlns="http://www.w3.org/2000/svg" xmlns:xlink="http://www.w3.org/1999/xlink">
    <!-- Generator: Sketch 49.1 (51147) - http://www.bohemiancoding.com/sketch -->
    <desc>Created with Sketch.</desc>
    <defs></defs>
    <g id="Page-1" stroke="none" stroke-width="1" fill="none" fill-rule="evenodd" stroke-linecap="round" stroke-linejoin="round">
        <g id="Forside-1440" transform="translate(-965.000000, -464.000000)" stroke="#5023F9" stroke-width="3">
            <g id="Page-1-Copy-4" transform="translate(966.000000, 464.000000)">
                <path d="M66.9611,7.1691 L92.2501,7.1691" id="Stroke-1"></path>
                <path d="M86.5812,12.8391 L92.2502,7.1691" id="Stroke-2"></path>
                <path d="M86.5812,1.5002 L92.2502,7.1692" id="Stroke-3"></path>
                <path d="M34.2394,7.1691 L8.9504,7.1691" id="Stroke-5"></path>
                <path d="M14.6203,12.8391 L8.9503,7.1691" id="Stroke-6"></path>
                <g id="Group-21" transform="translate(0.000000, 0.935400)">
                    <path d="M14.6203,0.5648 L8.9503,6.2338" id="Stroke-7"></path>
                    <path d="M34.2394,6.2337 C40.0104,6.2337 44.6894,11.9127 44.6894,17.6847 L44.6894,62.1217 C44.6894,66.2357 41.3544,69.5717 37.2394,69.5717 L63.9614,69.5717 C59.8464,69.5717 56.5104,66.2357 56.5104,62.1217 L56.5104,17.6847 C56.5104,11.9127 61.1894,6.2337 66.9614,6.2337" id="Stroke-9"></path>
                    <polygon id="Stroke-11" points="13.9357 46.3001 0.4997 69.5711 27.3727 69.5711"></polygon>
                    <path d="M6.4494,38.8138 C6.4494,34.6788 9.8014,31.3268 13.9354,31.3268 C18.0704,31.3268 21.4234,34.6788 21.4234,38.8138 C21.4234,42.9478 18.0704,46.2998 13.9354,46.2998 C9.8014,46.2998 6.4494,42.9478 6.4494,38.8138 Z" id="Stroke-13"></path>
                    <polygon id="Stroke-15" points="87.2648 46.3001 73.8288 69.5711 100.7018 69.5711"></polygon>
                    <path d="M79.7785,38.8138 C79.7785,34.6788 83.1305,31.3268 87.2645,31.3268 C91.3995,31.3268 94.7515,34.6788 94.7515,38.8138 C94.7515,42.9478 91.3995,46.2998 87.2645,46.2998 C83.1305,46.2998 79.7785,42.9478 79.7785,38.8138 Z" id="Stroke-17"></path>
                    <path d="M21.422,81.1507 C28.815,88.7627 39.151,93.5007 50.601,93.5007 C62.05,93.5007 72.387,88.7627 79.778,81.1507" id="Stroke-19"></path>
                </g>
            </g>
        </g>
    </g>
</svg>
